<?xml version="1.0" standalone="no"?>
<!DOCTYPE svg PUBLIC "-//W3C//DTD SVG 20010904//EN"
 "http://www.w3.org/TR/2001/REC-SVG-20010904/DTD/svg10.dtd">
<svg version="1.0" xmlns="http://www.w3.org/2000/svg"
 width="920.000000pt" height="920.000000pt" viewBox="0 0 920.000000 920.000000"
 preserveAspectRatio="xMidYMid meet">
<metadata>
Created by potrace 1.11, written by Peter Selinger 2001-2013
</metadata>
<g transform="translate(0.000000,920.000000) scale(0.100000,-0.100000)"
fill="#000000" stroke="none">
<path d="M6100 8813 c0 -4 -10 -9 -22 -10 -22 -1 -57 -7 -88 -16 -8 -2 -36
-10 -62 -17 -27 -7 -48 -16 -48 -20 0 -4 -6 -7 -12 -7 -17 1 -112 -43 -116
-54 -2 -5 -8 -7 -13 -3 -5 3 -9 0 -9 -7 0 -7 -3 -9 -7 -6 -3 4 -12 -1 -20 -11
-10 -11 -12 -12 -8 -2 4 9 -2 6 -12 -5 -10 -11 -25 -21 -33 -23 -8 -2 -20 -10
-26 -18 -6 -7 -15 -14 -20 -14 -5 0 -28 -18 -51 -40 -24 -21 -43 -36 -43 -32
0 3 -27 -20 -60 -53 -32 -32 -57 -62 -54 -67 3 -5 2 -7 -3 -6 -4 2 -8 0 -8 -3
0 -3 -17 -22 -38 -42 -20 -21 -35 -37 -33 -37 3 0 -8 -15 -25 -32 -16 -18 -32
-41 -35 -50 -3 -10 -10 -18 -15 -18 -6 0 -8 -4 -4 -9 3 -6 -3 -14 -12 -20 -10
-6 -14 -11 -10 -11 5 0 1 -7 -7 -16 -9 -8 -13 -20 -10 -26 4 -7 2 -8 -4 -4
-11 6 -16 -6 -13 -26 0 -5 -4 -8 -9 -8 -6 0 -10 -7 -10 -15 0 -8 -4 -15 -8
-15 -9 0 -48 -81 -44 -92 1 -5 -3 -8 -9 -8 -5 0 -7 -4 -4 -10 3 -5 1 -10 -5
-10 -7 0 -9 -7 -6 -16 3 -8 2 -12 -4 -9 -6 3 -10 -3 -10 -14 0 -12 -4 -21 -10
-21 -5 0 -9 -3 -8 -7 1 -5 -4 -19 -11 -32 -8 -14 -9 -21 -2 -17 6 4 2 -9 -10
-28 -11 -19 -18 -40 -15 -45 3 -5 2 -11 -4 -13 -5 -1 -11 -12 -13 -23 -1 -11
-6 -26 -10 -32 -5 -7 -5 -17 -2 -23 3 -5 1 -10 -5 -10 -7 0 -10 -6 -7 -14 3
-8 3 -17 -1 -20 -6 -6 -10 -21 -17 -61 -2 -11 -4 -21 -5 -22 -2 -2 -4 -7 -5
-13 -1 -5 -4 -11 -5 -12 -1 -2 -4 -16 -5 -33 -2 -16 -4 -30 -5 -30 -1 0 -4 -9
-6 -20 -1 -11 -5 -36 -9 -55 -19 -110 -25 -362 -11 -480 4 -36 7 -77 6 -92 0
-15 4 -29 9 -33 5 -3 8 -17 5 -31 -3 -14 -1 -23 4 -21 4 3 8 -6 9 -21 0 -15 3
-37 7 -49 3 -13 8 -32 10 -43 3 -11 7 -24 10 -28 3 -5 7 -22 10 -38 3 -16 10
-30 15 -32 6 -2 8 -9 5 -17 -3 -7 0 -16 5 -20 6 -3 9 -11 6 -16 -4 -5 -1 -9 4
-9 6 0 10 -3 9 -7 -4 -14 23 -83 33 -83 5 0 9 -3 8 -7 -2 -16 14 -53 23 -53 5
0 7 -4 4 -9 -3 -5 1 -14 9 -21 8 -7 15 -19 15 -26 0 -8 5 -14 10 -14 6 0 10
-6 10 -12 0 -12 24 -46 64 -90 8 -9 22 -28 31 -42 10 -14 22 -23 28 -19 5 3 7
2 4 -4 -8 -13 37 -56 48 -46 4 5 5 3 2 -3 -4 -7 1 -18 10 -25 14 -12 16 -12 9
1 -5 8 3 3 16 -12 14 -16 30 -28 36 -28 5 0 13 -7 16 -16 4 -9 9 -14 12 -11 3
3 14 -3 25 -14 10 -10 26 -19 34 -19 8 0 15 -5 15 -12 0 -6 3 -8 7 -5 3 4 15
0 25 -10 10 -9 18 -13 18 -10 0 4 16 -2 37 -13 20 -10 40 -17 45 -14 4 3 8 0
8 -7 0 -6 8 -9 20 -6 13 3 18 1 13 -6 -4 -7 0 -8 12 -4 9 4 23 3 29 -2 29 -24
356 -36 356 -13 0 4 8 8 18 9 50 4 97 15 103 25 4 6 12 7 18 4 6 -4 11 -2 11
4 0 6 4 9 9 5 5 -3 12 -1 16 5 4 6 11 8 16 5 5 -4 9 -1 9 6 0 7 3 9 6 6 4 -3
16 -1 28 5 11 7 24 11 29 10 4 -1 7 3 7 10 0 6 3 8 7 5 3 -4 12 1 20 11 8 9
12 12 9 5 -4 -6 14 0 40 14 25 14 48 32 51 39 3 8 8 12 13 9 4 -2 16 5 28 15
12 11 26 20 31 20 6 0 18 11 27 25 9 14 20 22 25 20 4 -3 15 6 24 19 9 14 25
28 36 31 11 4 17 9 15 13 -2 4 2 13 10 20 8 7 14 10 14 7 0 -4 12 8 27 25 14
17 38 44 52 60 36 38 51 58 53 67 0 5 9 14 19 21 11 7 19 20 19 28 0 8 5 14
12 14 6 0 8 3 5 7 -4 3 2 13 13 20 11 8 18 18 15 23 -3 4 2 10 10 14 9 3 12
12 8 22 -4 11 -2 15 4 11 5 -4 22 17 37 46 15 29 37 71 51 95 13 23 18 39 12
35 -7 -4 -5 1 3 12 21 26 49 88 44 97 -3 5 -1 8 4 8 10 0 39 80 34 94 -2 5 1
12 7 15 5 4 12 18 15 33 2 14 9 36 16 47 6 12 8 21 5 21 -3 0 -1 8 4 18 5 9
11 31 14 47 3 17 8 41 12 55 3 14 8 39 11 55 3 17 7 39 9 50 27 139 36 343 22
505 -8 87 -13 125 -17 125 -1 0 -3 11 -4 25 -5 41 -18 104 -23 112 -2 5 -6 18
-9 30 -9 38 -12 53 -14 56 -3 3 -6 13 -15 50 -4 17 -12 32 -17 32 -5 0 -7 4
-4 8 3 5 -1 20 -9 35 -7 14 -11 28 -7 31 3 3 0 6 -7 6 -7 0 -9 5 -6 10 3 6 1
10 -5 10 -6 0 -8 5 -5 10 3 6 1 10 -5 10 -6 0 -8 5 -5 10 3 6 1 10 -5 10 -6 0
-9 4 -6 9 3 5 -3 20 -14 33 -11 14 -16 28 -13 32 3 3 1 6 -5 6 -7 0 -12 6 -12
14 0 7 -11 25 -24 39 -13 14 -21 28 -19 31 3 3 -2 8 -11 12 -9 3 -16 11 -16
18 0 6 -9 18 -20 26 -11 8 -20 20 -20 26 0 6 -8 18 -17 25 -14 12 -16 12 -8 0
5 -10 4 -12 -3 -7 -7 4 -12 12 -12 18 0 5 -16 26 -35 45 -19 19 -35 32 -35 28
0 -4 -9 4 -21 19 -11 14 -27 26 -35 26 -8 0 -14 5 -14 10 0 6 -7 10 -15 10 -8
0 -15 5 -15 12 0 6 -3 8 -7 5 -3 -4 -12 1 -20 11 -9 10 -12 11 -7 2 4 -8 -4
-5 -18 8 -13 12 -28 19 -31 15 -4 -3 -7 -1 -7 6 0 7 -4 9 -10 6 -5 -3 -10 -1
-10 4 0 6 -9 11 -19 11 -11 0 -23 5 -26 11 -4 6 -13 8 -20 5 -8 -3 -15 -1 -17
4 -2 6 -15 11 -30 12 -16 1 -28 6 -28 11 0 5 -10 8 -22 7 -13 -1 -25 -1 -28 0
-28 10 -62 14 -162 17 -65 2 -118 1 -118 -4z m-600 -307 c0 -2 -8 -10 -17 -17
-16 -13 -17 -12 -4 4 13 16 21 21 21 13z"/>
<path d="M2798 8779 c-15 -4 -29 -4 -32 -1 -3 3 -6 0 -6 -5 0 -6 -8 -10 -17
-8 -10 1 -22 0 -28 -4 -5 -3 -13 -6 -17 -7 -5 -1 -9 -2 -10 -4 -2 -1 -16 -4
-33 -6 -16 -3 -36 -10 -43 -17 -8 -6 -21 -12 -30 -13 -8 -2 -18 -6 -21 -11 -3
-4 -13 -9 -21 -11 -8 -2 -17 -8 -18 -13 -2 -5 -8 -7 -13 -3 -5 3 -9 0 -9 -5 0
-6 -6 -11 -14 -11 -8 0 -17 -7 -20 -16 -3 -8 -10 -13 -14 -10 -5 3 -26 -11
-47 -30 -21 -19 -42 -34 -46 -34 -4 0 -11 -9 -14 -21 -4 -11 -9 -18 -12 -15
-3 3 -21 -11 -40 -32 -18 -20 -41 -46 -51 -56 -12 -14 -13 -17 -2 -12 8 4 6 0
-5 -9 -11 -9 -19 -21 -17 -26 1 -5 -4 -8 -10 -7 -7 2 -14 -7 -16 -20 -2 -13
-10 -26 -18 -29 -8 -3 -14 -11 -14 -19 0 -8 -4 -14 -9 -14 -10 0 -22 -29 -18
-43 1 -5 -6 -13 -16 -18 -9 -6 -15 -14 -12 -20 4 -5 1 -9 -6 -9 -7 0 -9 -3 -6
-7 4 -3 -1 -15 -10 -26 -10 -12 -12 -17 -4 -12 7 4 4 -5 -8 -22 -12 -16 -23
-39 -24 -51 -1 -12 -5 -22 -10 -22 -5 0 -7 -6 -4 -14 3 -8 1 -16 -5 -18 -6 -2
-10 -16 -10 -31 0 -15 -5 -27 -11 -27 -6 0 -7 -3 -4 -7 4 -3 2 -12 -4 -19 -6
-8 -9 -20 -6 -29 4 -8 2 -17 -2 -20 -10 -5 -23 -66 -36 -160 -2 -16 -5 -32 -6
-35 -7 -15 -10 -82 -11 -235 -1 -156 2 -219 17 -315 3 -19 6 -45 7 -57 1 -13
5 -23 8 -23 3 0 6 -12 7 -27 1 -32 9 -72 23 -107 5 -13 6 -27 3 -30 -4 -3 -1
-6 5 -6 6 0 9 -6 6 -14 -3 -8 0 -17 5 -21 6 -3 9 -11 6 -16 -4 -5 -3 -15 2
-21 4 -7 8 -17 9 -23 1 -5 8 -23 15 -40 7 -16 13 -33 14 -37 2 -5 4 -11 5 -15
1 -5 2 -11 1 -15 0 -5 3 -8 9 -8 5 0 10 -9 10 -20 0 -11 5 -20 11 -20 5 0 8
-4 4 -9 -3 -5 -1 -12 5 -16 6 -4 8 -11 5 -16 -4 -5 -1 -9 4 -9 6 0 11 -7 11
-17 0 -9 12 -32 27 -51 15 -20 20 -32 12 -27 -9 5 -7 1 4 -12 9 -11 17 -25 17
-31 0 -7 5 -12 10 -12 6 0 10 -5 10 -11 0 -7 8 -18 18 -26 10 -8 11 -11 2 -7
-17 9 -10 -2 48 -70 6 -8 12 -20 12 -26 0 -5 3 -10 8 -10 4 0 12 -10 17 -22 6
-13 17 -22 24 -20 7 1 10 -2 7 -7 -4 -5 4 -17 16 -26 13 -8 23 -19 22 -23 0
-4 28 -36 63 -71 35 -36 63 -61 63 -56 0 5 7 -1 16 -13 8 -12 20 -20 25 -16 5
3 8 2 7 -3 -2 -4 2 -10 7 -12 6 -2 16 -12 23 -22 7 -11 18 -19 23 -19 6 0 17
-7 26 -15 8 -8 19 -12 25 -9 7 4 8 2 4 -4 -4 -7 -2 -13 3 -13 6 -1 16 -2 21
-3 6 0 14 -6 18 -13 4 -6 14 -13 22 -15 8 -2 21 -9 28 -16 8 -7 18 -10 23 -7
5 4 9 1 9 -5 0 -6 5 -8 10 -5 6 3 10 1 10 -6 0 -7 3 -9 7 -6 3 4 12 2 19 -3
11 -10 45 -21 72 -22 6 -1 12 -5 12 -9 0 -4 8 -6 18 -4 9 1 22 -2 29 -7 7 -5
17 -7 22 -4 5 4 12 2 16 -4 3 -5 16 -10 28 -10 214 -4 261 -2 327 15 14 3 32
8 40 10 8 2 17 4 20 5 3 1 8 2 13 1 4 0 7 4 7 10 0 5 4 8 9 4 12 -7 61 15 61
27 0 6 6 8 13 5 6 -2 18 3 25 12 8 9 10 10 7 3 -6 -11 -3 -11 14 0 12 7 21 16
21 21 0 4 4 6 9 3 10 -7 130 83 150 112 8 12 18 19 23 16 4 -3 8 2 8 10 0 9 3
15 8 14 4 -2 8 0 9 5 2 4 18 23 38 43 19 19 35 39 35 44 0 6 5 10 12 10 6 0 9
3 6 6 -3 3 7 19 23 37 16 17 29 37 29 43 0 6 7 17 15 24 8 7 13 16 10 20 -3 4
2 11 11 14 9 4 14 13 10 21 -3 8 -1 15 4 15 9 0 26 39 22 53 -1 4 3 7 9 7 5 0
7 5 4 10 -3 6 -2 10 3 10 9 0 25 40 26 65 1 6 5 13 9 16 5 3 9 12 10 20 2 8 6
20 10 27 5 6 5 12 1 12 -3 0 -2 6 3 13 6 6 9 20 8 30 -2 9 1 17 7 17 6 0 8 7
4 15 -3 8 -1 15 4 15 5 0 9 8 8 18 0 9 3 28 7 42 4 14 8 36 10 50 2 14 4 25 5
25 2 0 4 9 5 20 1 11 6 43 10 70 11 79 7 480 -5 480 -1 0 -3 14 -4 30 -5 54
-16 114 -25 137 -4 13 -6 29 -4 36 3 6 1 12 -4 12 -4 0 -9 11 -10 25 -4 46 -6
55 -15 55 -5 0 -6 5 -3 10 3 6 3 16 -2 23 -4 6 -8 18 -9 25 -2 8 -6 21 -10 30
-4 9 -9 26 -11 37 -2 11 -8 21 -13 23 -5 2 -6 10 -3 18 3 8 0 14 -6 14 -6 0
-10 3 -10 8 4 21 -3 42 -16 56 -9 8 -16 18 -15 21 0 3 -1 7 -1 10 -1 3 -3 10
-4 15 -1 6 -3 15 -4 21 0 5 -5 8 -9 5 -4 -2 -9 5 -9 16 -1 11 -10 27 -20 35
-10 8 -12 12 -6 8 8 -3 6 6 -5 24 -9 17 -21 31 -25 31 -5 0 -5 5 -2 10 3 6 1
10 -4 10 -6 0 -11 7 -11 15 0 9 -7 18 -15 21 -8 4 -13 10 -10 14 3 4 -8 23
-23 43 -15 19 -34 45 -42 58 -8 12 -24 32 -35 44 -11 11 -28 33 -38 48 -9 15
-24 27 -32 27 -8 0 -14 4 -12 8 3 11 -58 72 -73 72 -6 0 -9 4 -5 9 3 5 -9 20
-27 32 -18 13 -44 34 -58 46 -14 13 -28 23 -32 23 -4 0 -16 7 -25 15 -10 8
-22 16 -28 17 -5 1 -19 10 -29 20 -10 9 -23 15 -28 12 -4 -3 -8 0 -8 6 0 6 -4
8 -10 5 -5 -3 -10 -2 -10 4 0 9 -25 21 -43 21 -4 -1 -15 6 -24 15 -8 9 -22 14
-29 11 -8 -3 -14 -1 -14 5 0 6 -7 9 -15 5 -8 -3 -15 -1 -15 5 0 6 -6 9 -14 6
-8 -3 -16 -2 -18 3 -2 5 -16 11 -33 14 -16 2 -37 6 -45 9 -31 11 -266 16 -302
6z"/>
<path d="M856 6523 c-2 -2 -30 -5 -62 -7 -33 -2 -59 -5 -59 -6 0 -3 -48 -10
-67 -11 -10 0 -18 -5 -18 -10 0 -6 -4 -8 -9 -4 -5 3 -12 1 -16 -4 -3 -6 -13
-7 -22 -4 -11 4 -14 3 -9 -5 5 -8 2 -10 -8 -6 -9 3 -16 1 -16 -5 0 -6 -7 -8
-17 -4 -12 5 -14 3 -8 -7 6 -10 4 -12 -9 -7 -10 4 -24 -1 -36 -13 -11 -11 -22
-19 -25 -17 -2 1 -13 -6 -24 -15 -11 -9 -22 -14 -24 -11 -3 3 -27 -17 -54 -44
-26 -26 -39 -37 -28 -23 l20 25 -27 -24 c-15 -13 -25 -29 -21 -35 3 -6 2 -8
-2 -3 -10 8 -45 -21 -45 -37 0 -6 -12 -21 -27 -33 -14 -13 -23 -23 -20 -23 3
0 -5 -11 -19 -25 -14 -14 -22 -30 -18 -37 4 -7 3 -8 -4 -4 -11 6 -16 -6 -13
-26 0 -5 -4 -8 -10 -8 -5 0 -7 -4 -4 -10 3 -5 2 -10 -4 -10 -10 0 -27 -38 -23
-52 1 -5 -2 -8 -7 -8 -8 0 -24 -37 -22 -52 1 -5 -3 -8 -7 -8 -5 0 -9 -7 -10
-15 -1 -8 -3 -22 -4 -30 -1 -8 -5 -15 -9 -15 -4 0 -10 -17 -14 -37 -5 -21 -10
-45 -12 -53 -3 -8 -5 -25 -6 -37 0 -13 -5 -23 -9 -23 -4 0 -6 -14 -4 -30 2
-17 0 -33 -5 -35 -10 -7 -10 -9 -16 -199 -2 -87 -1 -166 3 -175 4 -9 8 -25 10
-36 1 -11 5 -33 7 -50 3 -16 8 -50 12 -75 4 -25 10 -47 14 -50 4 -3 8 -15 9
-27 3 -42 5 -53 11 -53 3 0 7 -12 8 -27 0 -15 6 -29 12 -31 5 -2 8 -9 5 -17
-3 -7 0 -16 5 -20 6 -3 9 -11 6 -16 -4 -5 -1 -9 5 -9 7 0 10 -7 6 -15 -3 -8 1
-20 8 -27 7 -7 11 -19 8 -27 -3 -8 0 -11 7 -7 7 5 9 1 5 -8 -3 -9 -1 -16 6
-16 6 0 8 -4 5 -10 -3 -5 -1 -10 4 -10 6 0 10 -3 9 -7 -4 -12 26 -73 35 -73 5
0 6 -4 2 -9 -3 -5 2 -17 11 -25 8 -9 12 -16 7 -16 -4 0 -2 -4 6 -9 8 -5 16
-18 17 -27 2 -10 9 -23 17 -29 8 -5 14 -14 15 -20 0 -5 11 -21 24 -34 13 -14
16 -21 8 -16 -8 4 -6 -2 5 -13 34 -35 45 -51 45 -61 0 -5 19 -26 43 -47 23
-20 33 -31 22 -24 -11 8 2 -9 30 -36 27 -27 53 -48 57 -46 5 1 7 -4 6 -10 -2
-7 3 -12 10 -10 8 1 11 -2 8 -7 -3 -5 2 -15 11 -22 14 -12 16 -12 9 1 -4 8 2
3 14 -13 12 -15 26 -24 31 -21 5 3 8 2 7 -3 -2 -4 1 -9 5 -10 4 -1 17 -12 28
-25 11 -13 18 -16 14 -8 -4 8 3 4 14 -10 11 -14 21 -21 21 -17 0 4 10 -1 22
-13 12 -11 28 -20 35 -20 7 0 13 -5 13 -11 0 -6 7 -8 16 -5 8 3 13 2 10 -3 -5
-7 16 -17 40 -20 2 0 12 -7 20 -16 9 -8 20 -13 25 -10 5 4 9 1 9 -4 0 -6 8
-11 18 -11 10 0 22 -4 28 -10 5 -5 18 -11 29 -13 11 -1 26 -6 33 -10 6 -5 12
-5 12 -1 0 3 7 1 15 -6 8 -7 21 -10 29 -7 8 3 16 2 18 -3 5 -14 147 -28 238
-24 82 4 135 9 135 14 0 1 9 3 20 5 21 4 57 12 65 15 3 1 8 2 13 1 4 0 7 3 7
9 0 6 3 9 8 8 13 -4 82 23 82 33 0 5 3 8 8 8 19 -3 31 3 57 29 16 15 25 20 21
12 -4 -8 2 -4 13 9 12 13 21 19 21 15 0 -5 7 0 16 11 8 11 20 20 27 20 7 1 11
6 9 13 -1 7 4 11 10 10 7 -2 12 3 10 10 -1 6 4 11 10 10 7 -2 12 3 10 10 -1 8
2 11 6 8 10 -6 102 105 102 123 0 6 5 11 10 11 6 0 10 5 10 12 0 6 6 19 14 27
8 9 16 23 18 31 2 8 9 21 16 28 7 8 10 18 7 23 -4 5 -1 9 5 9 6 0 9 4 6 8 -3
5 4 23 15 41 11 18 17 36 14 42 -4 5 -1 9 5 9 7 0 10 7 6 15 -3 8 -1 15 5 15
6 0 9 6 6 14 -3 8 -3 17 1 21 4 4 7 10 8 13 0 4 4 20 9 37 5 16 9 39 9 50 1
11 5 25 9 31 4 7 7 23 7 35 0 13 2 56 5 94 11 140 5 271 -19 395 -3 14 -7 36
-10 50 -12 65 -18 88 -28 120 -7 19 -13 38 -14 43 -1 4 -3 9 -4 12 -1 3 -4 10
-5 15 -1 6 -3 11 -5 13 -1 1 -3 11 -5 22 -2 11 -8 21 -14 23 -5 2 -7 10 -4 18
3 8 -1 14 -8 14 -7 0 -10 3 -6 6 8 8 -13 64 -25 64 -5 0 -6 5 -3 10 3 6 1 10
-5 10 -6 0 -9 4 -5 9 3 5 1 12 -5 16 -6 4 -8 10 -5 15 3 5 -1 12 -9 17 -8 4
-16 13 -17 18 -8 35 -12 45 -20 45 -5 0 -8 3 -8 8 3 20 -2 32 -13 26 -7 -4 -8
-3 -4 4 4 6 -1 20 -11 30 -10 10 -19 25 -21 33 -2 8 -10 19 -18 25 -7 6 -14
14 -14 18 0 4 -6 14 -12 21 -30 33 -38 45 -38 54 0 5 -17 23 -37 41 -21 17
-31 28 -23 24 8 -4 -3 11 -25 33 -22 22 -44 38 -49 35 -5 -3 -6 0 -3 5 4 6
-21 35 -56 64 -34 29 -56 45 -48 34 8 -11 1 -6 -16 10 -44 43 -63 57 -63 48 0
-4 -5 0 -11 10 -6 9 -14 15 -20 12 -5 -4 -9 -2 -9 4 0 6 -17 18 -37 27 -21 10
-48 26 -61 35 -13 10 -30 15 -38 12 -8 -3 -14 0 -14 5 0 9 -40 28 -48 23 -1
-1 -16 6 -32 14 -16 8 -32 15 -35 15 -3 0 -6 0 -7 1 -11 3 -47 11 -63 14 -11
2 -20 4 -20 5 0 4 -45 11 -95 15 -30 3 -67 7 -82 9 -15 2 -29 1 -32 -1z"/>
<path d="M8225 6512 c-3 -3 -15 -7 -28 -8 -74 -8 -121 -15 -131 -21 -6 -4 -20
-9 -31 -10 -11 -2 -24 -8 -29 -13 -4 -4 -15 -6 -22 -3 -8 3 -14 0 -14 -7 0 -6
-4 -9 -9 -5 -5 3 -12 1 -16 -5 -4 -6 -10 -8 -15 -5 -5 3 -14 0 -22 -7 -7 -7
-20 -14 -28 -16 -8 -2 -17 -8 -18 -13 -2 -5 -7 -7 -12 -4 -5 3 -14 0 -22 -7
-7 -7 -20 -14 -28 -16 -8 -2 -26 -13 -39 -25 -13 -12 -20 -15 -16 -7 5 8 -9 2
-31 -15 -21 -16 -41 -33 -42 -37 -2 -5 -8 -6 -13 -3 -4 3 -14 -3 -21 -15 -7
-11 -18 -20 -25 -20 -6 0 -21 -12 -33 -27 -12 -16 -18 -21 -14 -13 7 13 5 13
-9 1 -9 -7 -14 -17 -11 -22 3 -5 2 -8 -3 -7 -5 2 -46 -34 -92 -79 -46 -46 -80
-83 -75 -83 5 0 1 -5 -9 -11 -9 -6 -15 -15 -11 -20 3 -5 2 -8 -3 -7 -4 2 -10
-2 -12 -7 -2 -6 -12 -16 -23 -23 -10 -7 -16 -17 -13 -22 3 -4 -2 -11 -11 -14
-8 -3 -13 -10 -10 -15 3 -5 -1 -12 -10 -15 -9 -4 -14 -9 -11 -12 2 -3 -6 -17
-19 -31 -13 -14 -21 -29 -18 -34 3 -5 0 -9 -5 -9 -6 0 -11 -7 -11 -15 0 -8 -5
-15 -11 -15 -5 0 -7 -4 -4 -10 3 -5 2 -10 -4 -10 -9 0 -27 -40 -22 -49 2 -2
-1 -7 -6 -10 -11 -8 -48 -84 -45 -93 1 -5 -3 -8 -9 -8 -6 0 -9 -7 -5 -15 3 -8
1 -15 -5 -15 -6 0 -8 -7 -5 -16 3 -8 2 -12 -4 -9 -9 5 -15 -15 -11 -37 0 -5
-4 -8 -10 -8 -6 0 -9 -6 -6 -14 3 -8 2 -16 -3 -18 -4 -2 -10 -17 -13 -34 -3
-17 -10 -40 -16 -51 -5 -11 -8 -23 -5 -26 3 -3 2 -12 -2 -19 -10 -16 -15 -37
-30 -128 -24 -156 -21 -483 6 -515 5 -7 8 -14 5 -17 -3 -2 0 -20 6 -39 5 -19
12 -43 14 -53 3 -11 9 -24 14 -29 5 -5 7 -16 4 -23 -3 -8 -1 -14 4 -14 5 0 9
-10 10 -22 1 -11 7 -24 13 -28 7 -4 11 -9 9 -11 -5 -9 52 -119 61 -119 6 0 8
-5 5 -10 -3 -6 1 -13 9 -16 9 -3 16 -12 16 -19 0 -7 17 -32 39 -54 21 -22 36
-43 33 -46 -3 -3 2 -5 12 -5 9 0 14 -4 11 -10 -3 -5 -3 -10 2 -10 4 0 25 -16
46 -35 20 -18 37 -31 37 -27 0 4 7 -2 15 -12 8 -11 15 -17 15 -13 0 4 10 -1
22 -12 11 -11 25 -18 30 -15 4 3 11 -1 14 -10 3 -8 12 -17 20 -20 10 -4 13 -2
8 7 -4 6 1 5 12 -3 25 -20 89 -50 124 -57 8 -1 29 -5 45 -9 17 -3 40 -6 53 -6
12 0 22 -4 22 -8 0 -9 256 -6 287 4 21 7 41 11 92 22 13 3 32 9 43 15 10 5 18
7 18 4 0 -3 10 0 23 7 12 7 24 13 27 13 38 9 60 19 60 27 0 5 4 7 9 3 5 -3 15
0 23 7 7 7 20 14 28 16 8 2 17 8 18 13 2 5 8 7 12 4 5 -3 18 3 30 15 11 11 22
19 25 18 2 -2 13 5 24 14 11 9 22 14 24 11 3 -3 11 4 18 15 7 12 19 18 27 14
10 -3 13 -1 8 6 -4 7 -2 12 6 12 7 0 41 26 76 58 34 32 64 57 67 54 2 -3 9 7
14 22 6 14 13 26 16 26 4 0 3 -6 -1 -12 -4 -7 9 2 29 21 20 19 35 37 34 40 -1
3 13 21 32 39 19 17 30 32 25 32 -5 0 -1 5 9 11 9 5 17 16 17 23 0 8 7 16 15
20 8 3 14 9 13 13 -2 5 7 19 19 32 12 13 20 27 18 31 -3 5 2 10 10 14 8 3 15
14 15 25 0 11 8 25 18 30 9 6 13 11 7 11 -5 0 -5 4 2 8 6 4 13 14 15 22 2 8
10 21 18 28 13 12 13 13 0 7 -9 -4 -7 0 4 9 10 8 15 20 10 27 -4 7 -3 10 3 6
6 -4 14 0 17 9 4 10 2 13 -7 8 -6 -4 -4 1 5 12 9 10 18 26 20 34 2 8 7 18 11
21 4 3 9 16 10 27 1 12 4 22 8 22 8 0 44 111 41 128 -2 6 2 12 8 12 7 0 10 6
7 13 -2 6 2 27 10 45 7 17 11 32 8 32 -2 0 0 11 5 24 5 14 11 46 15 73 3 26 8
59 12 73 10 35 16 309 7 329 -4 9 -8 27 -9 41 -1 14 -4 27 -5 30 -1 3 -2 8 -1
13 1 4 -4 26 -9 50 -6 23 -13 53 -16 66 -3 13 -9 32 -14 41 -5 10 -6 20 -3 24
3 3 0 6 -7 6 -7 0 -10 3 -7 7 4 3 2 12 -4 20 -6 7 -8 13 -4 13 3 0 -3 15 -14
33 -11 19 -18 37 -14 40 3 4 -1 9 -10 13 -9 3 -13 12 -10 20 3 8 0 14 -6 14
-6 0 -11 7 -11 15 0 8 -5 15 -11 15 -5 0 -7 5 -4 10 3 6 -1 13 -9 16 -9 3 -14
10 -11 14 3 5 -2 13 -11 18 -9 5 -17 13 -17 18 -1 5 -6 8 -12 6 -5 -2 -7 0 -3
3 10 10 -42 76 -53 69 -5 -3 -9 1 -9 9 0 15 -51 63 -62 59 -5 -1 -8 2 -8 8 0
6 -7 10 -16 10 -8 0 -13 4 -9 9 3 6 -4 15 -15 21 -11 6 -20 7 -20 3 0 -4 -5 0
-11 10 -6 9 -14 15 -20 12 -5 -4 -9 -2 -9 4 0 5 -14 16 -30 25 -20 9 -28 10
-24 3 3 -7 -2 -3 -10 7 -9 11 -16 16 -16 12 0 -5 -11 -1 -25 8 -14 9 -25 14
-25 10 0 -4 -7 -1 -15 6 -8 7 -15 10 -15 7 0 -3 -15 0 -34 8 -18 8 -36 12 -39
9 -3 -3 -15 0 -27 6 -22 12 -244 22 -255 12z m525 -2136 c0 -2 -8 -10 -17 -17
-16 -13 -17 -12 -4 4 13 16 21 21 21 13z"/>
<path d="M4388 5525 c-2 -3 -31 -7 -64 -10 -58 -5 -94 -10 -104 -15 -3 -1 -15
-1 -27 0 -13 1 -23 -4 -23 -11 0 -7 -3 -9 -7 -6 -3 4 -13 1 -21 -6 -13 -10
-14 -9 -7 2 5 9 4 12 -2 8 -12 -7 -66 -28 -73 -29 -3 0 -11 -4 -17 -10 -7 -6
-13 -7 -13 -3 0 5 -8 1 -18 -8 -10 -10 -22 -14 -25 -10 -4 3 -14 -2 -23 -13
-8 -10 -13 -14 -10 -7 4 6 -13 1 -36 -13 -24 -13 -51 -27 -60 -30 -10 -4 -15
-11 -11 -17 4 -6 0 -8 -10 -4 -10 4 -20 0 -26 -11 -6 -9 -11 -12 -11 -7 0 6
-10 -1 -21 -15 -11 -14 -17 -19 -13 -11 4 7 -7 3 -25 -10 -30 -22 -43 -38 -19
-23 7 4 8 3 4 -5 -4 -6 -11 -9 -15 -7 -4 3 -20 -6 -37 -20 -16 -14 -23 -22
-15 -18 9 5 12 3 7 -5 -4 -6 -11 -9 -16 -6 -5 3 -13 -3 -19 -12 -6 -10 -11
-15 -11 -11 0 4 -12 -5 -27 -19 -16 -14 -27 -29 -26 -34 2 -5 -3 -8 -10 -6 -6
1 -11 -4 -10 -10 2 -7 -3 -12 -10 -10 -6 1 -11 -4 -10 -10 2 -7 -2 -12 -9 -10
-7 1 -13 -5 -13 -13 0 -8 -6 -14 -13 -13 -6 2 -24 -14 -39 -35 -15 -20 -41
-50 -58 -66 -16 -16 -23 -25 -15 -20 8 4 -4 -11 -28 -35 -23 -23 -39 -47 -36
-53 4 -6 3 -8 -3 -5 -6 4 -17 -1 -24 -10 -12 -14 -12 -16 1 -9 8 5 -1 -6 -20
-24 -19 -18 -28 -29 -20 -25 8 5 4 -3 -10 -17 -36 -38 -50 -56 -50 -67 0 -5
-7 -11 -15 -15 -8 -3 -15 -12 -15 -20 0 -7 -7 -17 -16 -20 -8 -3 -12 -10 -9
-16 3 -5 2 -10 -3 -10 -9 0 -48 -55 -61 -85 -2 -5 -14 -18 -25 -28 -12 -10
-14 -15 -6 -11 8 4 2 -5 -13 -19 -17 -16 -25 -32 -21 -40 4 -6 4 -9 -1 -5 -9
9 -66 -63 -59 -74 3 -4 -5 -12 -16 -18 -11 -6 -18 -15 -15 -21 4 -5 2 -9 -4
-9 -5 0 -23 -22 -40 -50 -17 -27 -40 -59 -51 -70 -11 -11 -18 -25 -15 -30 4
-6 -2 -10 -11 -10 -10 0 -15 -3 -11 -6 3 -4 1 -12 -6 -20 -30 -34 -37 -44 -30
-44 4 0 0 -5 -9 -11 -10 -5 -18 -17 -18 -25 0 -8 -4 -13 -9 -10 -5 3 -18 -12
-29 -34 -10 -22 -22 -37 -25 -33 -4 3 -10 -3 -14 -13 -4 -10 -14 -24 -22 -31
-9 -7 -13 -13 -10 -13 4 0 -9 -16 -27 -36 -19 -20 -31 -40 -28 -46 4 -6 2 -8
-3 -5 -6 4 -19 -5 -29 -20 -9 -15 -27 -36 -38 -46 -12 -10 -14 -16 -6 -12 8 4
3 -3 -13 -15 -15 -12 -24 -27 -20 -33 3 -7 3 -9 -2 -5 -8 7 -65 -50 -65 -65 0
-5 -4 -5 -10 -2 -6 3 -10 2 -10 -4 0 -9 -156 -169 -176 -181 -5 -3 -8 -8 -6
-13 1 -4 -2 -6 -7 -5 -5 2 -26 -15 -47 -37 -20 -22 -32 -31 -24 -20 7 11 -6 1
-28 -22 -22 -24 -45 -43 -51 -43 -6 0 -11 -3 -11 -7 0 -5 -29 -38 -64 -75 -36
-36 -61 -70 -58 -74 4 -4 2 -4 -4 -1 -7 4 -17 0 -24 -8 -7 -8 -9 -15 -6 -15 4
0 -5 -12 -21 -27 -45 -44 -79 -87 -63 -78 8 4 2 -5 -15 -20 -16 -15 -29 -31
-28 -36 2 -5 -2 -9 -8 -9 -5 0 -7 -5 -4 -10 4 -6 1 -9 -7 -8 -7 2 -12 -3 -11
-9 2 -7 -2 -13 -9 -13 -6 0 -9 -3 -6 -6 3 -3 -5 -17 -18 -31 -13 -14 -38 -51
-55 -82 -17 -31 -40 -67 -50 -80 -10 -13 -16 -27 -13 -32 3 -5 1 -9 -3 -9 -5
0 -14 -9 -21 -21 -9 -13 -9 -18 -2 -14 7 4 7 -1 -2 -14 -7 -12 -16 -21 -21
-21 -4 0 -6 -4 -2 -9 3 -5 1 -12 -5 -16 -6 -4 -8 -11 -5 -16 4 -5 2 -9 -4 -9
-10 0 -27 -39 -23 -54 2 -5 -4 -16 -12 -25 -8 -9 -16 -25 -18 -36 -1 -11 -7
-23 -11 -26 -5 -3 -9 -12 -10 -20 -2 -8 -6 -20 -10 -26 -5 -7 -5 -17 -2 -23 3
-6 2 -10 -4 -10 -6 0 -8 -7 -5 -15 4 -8 2 -15 -4 -15 -9 0 -27 -61 -25 -87 0
-7 -3 -13 -7 -13 -5 0 -9 -8 -8 -17 0 -10 -4 -31 -8 -48 -4 -16 -7 -38 -8 -47
0 -10 -3 -18 -6 -18 -3 0 -7 -10 -8 -22 0 -13 -4 -48 -7 -78 -9 -78 -10 -345
-2 -405 7 -52 14 -90 17 -90 1 0 3 -11 5 -25 1 -14 6 -36 9 -50 4 -14 9 -36
12 -50 3 -13 9 -29 14 -35 4 -5 9 -13 9 -17 1 -5 1 -9 2 -10 0 -2 2 -14 5 -27
2 -14 10 -31 16 -39 7 -8 14 -23 15 -35 2 -12 8 -24 14 -28 6 -3 10 -10 10
-15 -1 -18 11 -44 20 -44 6 0 8 -4 4 -9 -3 -6 5 -20 17 -32 13 -12 16 -18 9
-14 -8 5 -4 -7 9 -26 13 -19 28 -35 32 -37 4 -2 8 -9 8 -17 0 -7 10 -20 23
-29 12 -9 16 -14 8 -10 -8 4 -1 -9 15 -29 16 -20 32 -37 37 -37 4 0 7 -6 7
-13 0 -15 74 -87 89 -87 5 0 13 -5 17 -12 4 -7 3 -8 -4 -4 -21 13 -13 0 20
-30 19 -17 27 -21 19 -9 -7 11 -1 7 15 -10 15 -16 32 -29 37 -27 4 1 5 -2 2
-8 -4 -7 2 -14 14 -17 12 -3 21 -10 21 -16 0 -6 3 -7 7 -4 3 4 13 -2 21 -14 8
-11 20 -18 28 -15 7 3 16 0 20 -6 5 -7 2 -8 -7 -4 -8 4 -5 1 5 -8 10 -8 23
-13 27 -10 5 3 9 0 9 -6 0 -6 5 -8 10 -5 5 3 10 1 10 -5 0 -6 21 -20 48 -30
26 -11 59 -27 74 -36 16 -8 28 -12 28 -8 0 3 6 2 13 -4 7 -6 24 -13 37 -15 14
-3 38 -10 54 -16 16 -7 31 -9 34 -6 3 2 11 0 18 -6 8 -6 21 -9 29 -5 8 3 15 2
15 -3 0 -5 10 -7 23 -7 12 1 26 0 32 -3 30 -16 290 -21 370 -8 28 5 66 10 85
12 35 3 64 8 130 20 74 14 86 16 103 16 9 0 17 5 17 10 0 5 11 7 25 5 14 -3
25 -1 25 4 0 5 7 7 15 4 8 -4 15 -1 15 5 0 6 7 8 15 5 8 -3 20 -2 27 2 14 9
28 12 66 16 12 1 22 6 22 11 0 4 4 5 10 2 5 -3 16 -3 23 2 6 4 21 9 32 10 11
2 27 6 35 10 8 3 20 5 27 4 6 -1 14 3 18 8 3 6 12 8 20 4 8 -3 15 0 15 5 0 6
9 9 20 7 11 -2 20 0 20 5 0 5 7 7 15 4 8 -4 15 -2 15 3 0 5 8 9 18 10 38 3 88
15 100 25 6 6 12 8 12 5 0 -3 15 -1 33 4 17 5 45 12 61 15 16 2 34 8 40 11 5
4 23 8 40 10 16 2 34 7 40 12 6 5 20 7 30 5 11 -1 25 0 30 4 6 3 20 7 31 9 36
5 60 10 60 13 0 1 11 3 25 5 14 1 45 6 70 10 85 13 95 15 160 21 117 10 303 6
450 -11 19 -2 55 -6 80 -9 25 -3 45 -6 45 -7 0 -1 14 -3 30 -6 57 -8 70 -10
70 -13 0 -1 9 -3 20 -4 17 -3 60 -11 150 -31 11 -2 35 -8 54 -14 18 -6 36 -10
40 -9 3 0 9 -1 14 -2 4 -1 10 -3 15 -4 4 -2 27 -8 52 -15 25 -7 53 -15 62 -16
9 -2 27 -9 39 -15 17 -10 20 -10 13 2 -6 11 -5 11 9 -1 9 -7 17 -10 17 -6 0 4
7 2 15 -5 8 -6 19 -9 25 -5 5 3 10 1 10 -5 0 -7 7 -10 15 -7 8 4 17 1 21 -4 3
-6 15 -9 25 -6 11 3 19 1 19 -5 0 -6 6 -8 14 -5 7 3 18 1 22 -3 5 -5 18 -11
29 -13 11 -1 25 -5 30 -8 6 -3 17 -5 25 -4 8 0 17 -3 21 -7 3 -4 21 -10 40
-12 18 -3 36 -6 39 -7 3 -1 10 -3 15 -4 6 -2 12 -4 15 -5 3 -1 16 -4 30 -7 40
-8 55 -11 55 -13 0 -2 15 -4 80 -14 11 -1 31 -6 44 -10 22 -8 40 -10 133 -20
15 -1 31 -5 34 -9 10 -10 344 -9 344 1 0 4 10 8 23 9 38 2 111 14 119 19 5 3
20 8 35 10 15 3 32 9 39 15 6 5 14 6 17 2 4 -3 13 -1 20 5 8 7 17 9 20 5 4 -3
7 -1 7 6 0 7 4 10 8 7 5 -3 34 8 65 24 30 15 58 26 61 23 3 -4 6 -1 6 6 0 7 5
9 10 6 6 -3 13 1 16 9 3 9 10 14 14 11 5 -3 15 1 23 9 8 8 17 12 21 9 3 -4 6
-2 6 4 0 6 8 14 18 17 27 10 61 31 90 57 15 13 31 24 35 24 5 0 14 8 21 17 7
10 17 18 21 18 5 0 30 22 57 50 26 27 53 50 58 50 6 0 9 3 8 8 -1 4 13 23 32
43 45 47 66 73 62 77 -2 2 7 12 20 22 13 11 19 19 14 20 -6 0 -1 7 10 16 10 8
12 12 4 8 -8 -4 -3 5 12 20 15 16 26 32 23 36 -3 4 2 11 11 14 9 4 14 13 10
22 -3 8 -2 12 4 9 9 -6 14 8 11 28 0 4 4 7 10 7 5 0 7 5 4 10 -3 6 -1 10 5 10
7 0 10 6 8 12 -3 7 1 19 9 26 7 8 11 18 8 23 -4 5 -2 9 3 9 8 0 13 11 27 63 2
4 4 9 5 12 1 3 4 10 5 15 1 6 3 11 5 13 1 1 4 15 6 31 3 16 10 38 15 49 6 10
8 21 5 24 -3 3 -1 14 4 23 13 25 31 189 32 290 0 74 -15 235 -27 280 -3 14 -6
37 -6 52 0 15 -4 30 -9 33 -5 3 -7 12 -4 19 3 8 1 17 -5 20 -6 4 -8 13 -4 21
3 8 0 15 -6 15 -6 0 -8 7 -5 15 4 8 2 15 -4 15 -6 0 -8 10 -4 22 4 16 2 19 -8
13 -9 -5 -11 -4 -6 3 4 7 4 17 0 24 -4 7 -9 23 -10 37 -2 13 -8 27 -14 31 -7
4 -12 11 -12 16 -1 11 -4 24 -14 49 -4 11 -8 22 -9 25 -6 21 -32 68 -44 84 -9
11 -10 16 -4 12 9 -5 11 -2 7 8 -3 9 -10 13 -15 10 -5 -3 -6 2 -3 10 4 10 1
16 -7 16 -7 0 -9 3 -6 7 4 3 -1 12 -11 20 -10 9 -11 11 -2 7 13 -7 13 -6 0 12
-8 10 -19 22 -23 25 -5 3 -8 8 -6 10 5 10 -13 49 -22 44 -5 -4 -9 3 -9 14 0
11 -5 23 -10 26 -6 4 -19 23 -29 43 -11 20 -29 47 -41 60 -11 12 -18 22 -14
22 4 0 -5 11 -20 25 -14 13 -26 27 -25 31 2 8 -63 94 -72 94 -4 0 -9 9 -12 21
-3 12 -10 18 -17 14 -6 -3 -9 -2 -8 3 2 5 -8 19 -21 31 -13 12 -21 21 -18 21
4 0 -1 9 -10 19 -9 11 -20 18 -25 15 -5 -3 -7 -1 -6 4 2 5 -18 30 -44 56 -27
25 -48 51 -48 58 0 6 -3 9 -6 6 -3 -3 -33 22 -66 56 -33 33 -57 54 -53 46 4
-8 -7 1 -24 20 -17 19 -35 35 -40 35 -5 0 -13 4 -18 9 -5 5 -2 6 7 2 8 -4 2 4
-15 19 -48 42 -147 141 -179 179 -17 19 -33 33 -38 30 -4 -3 -8 2 -8 10 0 8
-8 20 -17 25 -10 6 -14 11 -10 11 5 0 -7 15 -26 33 -19 17 -36 37 -38 42 -2 6
-7 9 -12 7 -4 -1 -6 1 -5 5 4 13 -48 84 -55 76 -4 -3 -7 1 -7 11 0 10 -5 14
-12 10 -7 -4 -8 -3 -4 4 4 6 -2 20 -14 32 -11 11 -20 24 -20 30 0 5 -8 14 -17
19 -10 6 -14 11 -9 11 5 0 -4 12 -20 26 -16 15 -22 23 -14 19 8 -3 5 2 -7 13
-12 11 -19 22 -16 26 4 3 1 6 -5 6 -7 0 -12 6 -12 13 0 7 -9 23 -20 35 -11 12
-20 25 -20 30 0 5 -10 17 -22 26 -13 9 -17 14 -10 10 11 -5 11 -2 0 15 -7 12
-16 21 -20 21 -5 0 -8 7 -8 15 0 8 -4 15 -10 15 -5 0 -10 7 -10 15 0 9 -7 18
-15 21 -8 4 -13 10 -10 14 3 5 0 14 -7 22 -7 7 -19 25 -27 40 -8 15 -18 25
-22 22 -5 -3 -7 1 -4 8 3 7 -6 25 -20 41 -14 15 -22 27 -18 27 4 0 0 5 -10 11
-9 6 -15 14 -12 20 4 5 1 9 -4 9 -6 0 -11 7 -11 15 0 8 -4 15 -10 15 -5 0 -10
7 -10 15 0 8 -9 24 -19 34 -11 11 -17 21 -15 24 3 2 -10 19 -28 38 -18 18 -27
29 -19 25 9 -6 8 0 -4 17 -9 14 -23 28 -31 31 -9 3 -12 10 -9 16 3 5 1 10 -4
10 -6 0 -11 5 -11 11 0 17 -36 59 -44 51 -4 -3 -4 1 -1 10 4 11 -3 24 -24 39
-17 13 -31 30 -31 40 0 20 -24 42 -35 31 -5 -4 -5 -1 -1 5 4 8 -14 34 -47 67
-30 31 -52 58 -49 61 3 3 -2 5 -12 5 -9 0 -15 4 -11 9 3 5 -18 29 -46 53 -28
24 -61 53 -72 66 -11 12 -26 22 -33 22 -6 0 -15 7 -18 16 -3 8 -10 12 -16 9
-5 -3 -10 -2 -10 4 0 5 -14 20 -32 32 -18 13 -28 17 -24 8 4 -7 -1 -5 -11 6
-10 12 -27 27 -37 35 -18 13 -19 13 -11 0 4 -8 -2 -5 -14 8 -12 12 -28 22 -36
22 -8 0 -15 5 -15 11 0 5 -4 8 -9 4 -5 -3 -12 -1 -16 5 -4 6 -11 8 -16 5 -5
-4 -9 -2 -9 3 0 10 -54 35 -76 35 -8 0 -14 5 -14 10 0 5 -6 7 -14 4 -8 -3 -16
-1 -18 4 -2 6 -16 12 -31 12 -15 1 -27 6 -27 11 0 4 -7 6 -15 2 -8 -3 -15 -1
-15 4 0 5 -9 7 -20 5 -11 -2 -20 1 -20 7 0 5 -7 8 -15 5 -8 -4 -17 -2 -20 3
-3 5 -13 9 -23 9 -9 0 -33 3 -52 6 -106 18 -159 23 -296 29 -56 3 -103 3 -106
1z m1163 -432 c13 -16 12 -17 -3 -4 -17 13 -22 21 -14 21 2 0 10 -8 17 -17z
m1400 -1780 c13 -16 12 -17 -3 -4 -10 7 -18 15 -18 17 0 8 8 3 21 -13z m-5300
-2500 c13 -16 12 -17 -3 -4 -17 13 -22 21 -14 21 2 0 10 -8 17 -17z"/>
</g>
</svg>
